<svg width="336" height="266" viewBox="0 146 336 266" fill="none" xmlns="http://www.w3.org/2000/svg">
<rect x="90.8984" y="370.528" width="20.7426" height="20.7824" transform="rotate(-180 90.8984 370.528)" fill="#3B3F32"/>
<rect x="111.578" y="391.245" width="20.7426" height="20.7824" transform="rotate(-180 111.578 391.245)" fill="#3B3F32"/>
<rect x="90.5508" y="411.963" width="20.7426" height="20.7824" transform="rotate(-180 90.5508 411.963)" fill="#3B3F32"/>
<rect x="132.246" y="411.963" width="20.7426" height="20.7824" transform="rotate(-180 132.246 411.963)" fill="#3B3F32"/>
<path d="M194.967 146C195.781 146 196.481 146.489 196.793 147.188C198.26 148.281 199.21 150.03 199.21 152V209.147C199.21 210.252 200.106 211.147 201.21 211.147H267.201C268.306 211.147 269.201 210.252 269.201 209.147V174.365C269.201 172.776 269.833 171.252 270.955 170.127L293.277 147.762C294.403 146.634 295.931 146 297.524 146H329.982C333.296 146 335.982 148.687 335.982 152V184.535C335.982 186.124 335.351 187.649 334.229 188.773L309.435 213.615C308.517 214.535 307.325 215.132 306.038 215.316L283.876 218.488C282.246 218.722 281.581 220.715 282.744 221.881L334.229 273.464C335.351 274.589 335.982 276.114 335.982 277.703L335.983 344.819C335.983 348.133 333.297 350.819 329.983 350.819H286.413C283.099 350.819 280.413 348.133 280.413 344.819L280.412 300.168C280.412 299.638 280.202 299.13 279.828 298.755L248.536 267.403C248.161 267.028 247.652 266.817 247.121 266.816H201.21C200.106 266.817 199.21 267.712 199.21 268.816V344.938C199.21 346.909 198.259 348.658 196.792 349.752C196.48 350.451 195.781 350.938 194.967 350.938H149.639C146.325 350.938 143.639 348.252 143.639 344.938V206.173C143.638 204.46 141.625 203.54 140.33 204.66L100.868 238.807C99.9906 239.566 99.9409 240.911 100.761 241.732L119.57 260.577C121.908 262.919 121.908 266.712 119.57 269.055L105.042 283.61C102.698 285.959 98.8928 285.959 96.5488 283.61L73.0635 260.079C72.2824 259.297 71.0138 259.297 70.2324 260.079L58.5371 271.797C58.163 272.172 57.9523 272.68 57.9521 273.21V344.938C57.952 348.252 55.2656 350.938 51.9521 350.938H6.14062C2.82698 350.938 0.140732 348.252 0.140625 344.938V248.499C0.140743 246.91 0.771176 245.385 1.89355 244.261L98.208 147.762C99.3335 146.634 100.862 146 102.455 146H194.967ZM102.455 150C101.924 150 101.414 150.211 101.039 150.587L4.72461 247.086C4.35059 247.461 4.14074 247.969 4.14062 248.499V344.938C4.14073 346.043 5.03613 346.938 6.14062 346.938H51.9521C53.0565 346.938 53.952 346.043 53.9521 344.938V273.21C53.9523 271.621 54.5834 270.096 55.7061 268.972L67.4014 257.254C69.7455 254.906 73.5507 254.906 75.8945 257.254L99.3799 280.785C100.161 281.568 101.43 281.568 102.211 280.785L116.739 266.229C117.518 265.448 117.518 264.184 116.739 263.403L97.9297 244.558C95.4704 242.093 95.6182 238.06 98.251 235.782L137.713 201.636C141.599 198.274 147.638 201.034 147.639 206.173V344.938C147.639 346.043 148.534 346.938 149.639 346.938H193.21C194.314 346.938 195.21 346.043 195.21 344.938V268.816C195.21 265.503 197.897 262.817 201.21 262.816H247.121C248.714 262.817 250.242 263.45 251.367 264.577L282.659 295.929C283.782 297.053 284.412 298.578 284.412 300.167L284.413 344.819C284.413 345.924 285.309 346.819 286.413 346.819H329.983C331.088 346.819 331.983 345.924 331.983 344.819L331.982 277.703C331.982 277.174 331.772 276.665 331.397 276.29L279.913 224.707C276.423 221.21 278.419 215.228 283.31 214.528L305.472 211.356C305.9 211.295 306.298 211.096 306.604 210.79L331.397 185.948C331.772 185.573 331.982 185.065 331.982 184.535V152C331.982 150.896 331.087 150 329.982 150H297.524C296.993 150 296.484 150.211 296.108 150.587L273.786 172.953C273.412 173.328 273.201 173.836 273.201 174.365V209.147C273.201 212.461 270.515 215.147 267.201 215.147H201.21C197.896 215.147 195.21 212.461 195.21 209.147V152C195.21 150.896 194.314 150 193.21 150H102.455Z" fill="#46614F"/>
<rect width="20.7426" height="20.7824" transform="matrix(1 0 0 -1 230.652 201.862)" fill="#3B3F32"/>
<rect width="20.7426" height="20.7824" transform="matrix(1 0 0 -1 209.969 222.579)" fill="#3B3F32"/>
<rect width="20.7426" height="20.7824" transform="matrix(1 0 0 -1 231 243.297)" fill="#3B3F32"/>
<rect width="20.7426" height="20.7824" transform="matrix(1 0 0 -1 189.293 243.297)" fill="#3B3F32"/>
</svg>
