<svg width="15" height="15" viewBox="0 0 15 15" fill="none" xmlns="http://www.w3.org/2000/svg">
<path d="M8 14.6667H6.66667V14H6V13.3333H5.33333V12.6667H4.66667V12H4V11.3333H3.33333V10.6667H2.66667V10H2V9.33333H1.33333V8.66667H0.666667V8H0V7.33333H0.666667V6.66667H1.33333V6H2V6.66667H2.66667V7.33333H3.33333V8H4V8.66667H4.66667V9.33333H5.33333V10H6V0H8.66667V10H9.33333V9.33333H10V8.66667H10.6667V8H11.3333V7.33333H12V6.66667H12.6667V6H13.3333V6.66667H14V7.33333H14.6667V8H14V8.66667H13.3333V9.33333H12.6667V10H12V10.6667H11.3333V11.3333H10.6667V12H10V12.6667H9.33333V13.3333H8.66667V14H8V14.6667Z" fill="#0D0D0D"/>
</svg>
