<svg width="100%" height="100%" viewBox="0 0 50 50" fill="none" xmlns="http://www.w3.org/2000/svg">
<path d="M20.142 11.7614C20.142 11.4789 20.371 11.25 20.6534 11.25H24.7443C25.0267 11.25 25.2557 11.4789 25.2557 11.7614V12.5284H32.4148C32.556 12.5284 32.6705 12.6429 32.6705 12.7841V13.0398H38.872C38.9772 13.0398 39.0625 12.9545 39.0625 12.8493V12.6865C39.0625 12.667 39.0783 12.6511 39.0978 12.6511H39.5994C39.6276 12.6511 39.6505 12.674 39.6505 12.7023V13.8068H32.6705V14.0625C32.6705 14.2037 32.556 14.3182 32.4148 14.3182H25.2557V15.3409H26.2784C26.8432 15.3409 27.3011 15.7988 27.3011 16.3636V17.8977H18.0966V16.3636C18.0966 15.7988 18.5545 15.3409 19.1193 15.3409H20.142V11.7614Z" fill="currentColor"/>
<path d="M40.2131 12.7841C40.2131 12.7135 40.1558 12.6562 40.0852 12.6562C40.0146 12.6562 39.9574 12.7135 39.9574 12.7841V13.2955C39.9574 13.3661 40.0146 13.4233 40.0852 13.4233C40.1558 13.4233 40.2131 13.3661 40.2131 13.2955V12.7841Z" fill="currentColor"/>
<path d="M2.5 27.6136H39.3182L47.5 25.0568V28.125L43.9205 32.2159L41.3106 34.3513C41.1683 33.4493 40.7443 32.6087 40.0905 31.9549C39.2754 31.1398 38.1698 30.6818 37.017 30.6818C35.8643 30.6818 34.7587 31.1398 33.9435 31.9549C33.1284 32.77 32.6705 33.8756 32.6705 35.0284H31.9034C31.9034 33.8756 31.4455 32.77 30.6303 31.9549C29.8152 31.1398 28.7096 30.6818 27.5568 30.6818C26.404 30.6818 25.2985 31.1398 24.4833 31.9549C23.6682 32.77 23.2102 33.8756 23.2102 35.0284H22.4432C22.4432 33.8756 21.9852 32.77 21.1701 31.9549C20.355 31.1398 19.2494 30.6818 18.0966 30.6818C16.9438 30.6818 15.8382 31.1398 15.0231 31.9549C14.2079 32.77 13.75 33.8756 13.75 35.0284H12.983C12.983 33.8756 12.525 32.77 11.7099 31.9549C10.8947 31.1398 9.78915 30.6818 8.63636 30.6818C7.48358 30.6818 6.378 31.1398 5.56286 31.9549C4.91097 32.6068 4.48753 33.4444 4.34407 34.3434L2.5 32.7534V27.6136Z" fill="currentColor"/>
<path d="M37.017 36.0511C37.5819 36.0511 38.0398 35.5932 38.0398 35.0284C38.0398 34.4636 37.5819 34.0057 37.017 34.0057C36.4522 34.0057 35.9943 34.4636 35.9943 35.0284C35.9943 35.5932 36.4522 36.0511 37.017 36.0511Z" fill="currentColor"/>
<path fill-rule="evenodd" clip-rule="evenodd" d="M40.3409 35.0284C40.3409 36.8641 38.8528 38.3523 37.017 38.3523C35.1813 38.3523 33.6932 36.8641 33.6932 35.0284C33.6932 33.1927 35.1813 31.7045 37.017 31.7045C38.8528 31.7045 40.3409 33.1927 40.3409 35.0284ZM37.017 36.8182C38.0055 36.8182 38.8068 36.0169 38.8068 35.0284C38.8068 34.0399 38.0055 33.2386 37.017 33.2386C36.0286 33.2386 35.2273 34.0399 35.2273 35.0284C35.2273 36.0169 36.0286 36.8182 37.017 36.8182Z" fill="currentColor"/>
<path d="M9.65909 35.0284C9.65909 35.5932 9.2012 36.0511 8.63636 36.0511C8.07153 36.0511 7.61364 35.5932 7.61364 35.0284C7.61364 34.4636 8.07153 34.0057 8.63636 34.0057C9.2012 34.0057 9.65909 34.4636 9.65909 35.0284Z" fill="currentColor"/>
<path fill-rule="evenodd" clip-rule="evenodd" d="M8.63636 38.3523C10.4721 38.3523 11.9602 36.8641 11.9602 35.0284C11.9602 33.1927 10.4721 31.7045 8.63636 31.7045C6.80064 31.7045 5.3125 33.1927 5.3125 35.0284C5.3125 36.8641 6.80064 38.3523 8.63636 38.3523ZM10.4261 35.0284C10.4261 36.0169 9.62483 36.8182 8.63636 36.8182C7.6479 36.8182 6.84659 36.0169 6.84659 35.0284C6.84659 34.0399 7.6479 33.2386 8.63636 33.2386C9.62483 33.2386 10.4261 34.0399 10.4261 35.0284Z" fill="currentColor"/>
<path d="M18.0966 36.0511C18.6614 36.0511 19.1193 35.5932 19.1193 35.0284C19.1193 34.4636 18.6614 34.0057 18.0966 34.0057C17.5318 34.0057 17.0739 34.4636 17.0739 35.0284C17.0739 35.5932 17.5318 36.0511 18.0966 36.0511Z" fill="currentColor"/>
<path fill-rule="evenodd" clip-rule="evenodd" d="M21.4205 35.0284C21.4205 36.8641 19.9323 38.3523 18.0966 38.3523C16.2609 38.3523 14.7727 36.8641 14.7727 35.0284C14.7727 33.1927 16.2609 31.7045 18.0966 31.7045C19.9323 31.7045 21.4205 33.1927 21.4205 35.0284ZM18.0966 36.8182C19.0851 36.8182 19.8864 36.0169 19.8864 35.0284C19.8864 34.0399 19.0851 33.2386 18.0966 33.2386C17.1081 33.2386 16.3068 34.0399 16.3068 35.0284C16.3068 36.0169 17.1081 36.8182 18.0966 36.8182Z" fill="currentColor"/>
<path d="M28.5795 35.0284C28.5795 35.5932 28.1217 36.0511 27.5568 36.0511C26.992 36.0511 26.5341 35.5932 26.5341 35.0284C26.5341 34.4636 26.992 34.0057 27.5568 34.0057C28.1217 34.0057 28.5795 34.4636 28.5795 35.0284Z" fill="currentColor"/>
<path fill-rule="evenodd" clip-rule="evenodd" d="M27.5568 38.3523C29.3925 38.3523 30.8807 36.8641 30.8807 35.0284C30.8807 33.1927 29.3925 31.7045 27.5568 31.7045C25.7211 31.7045 24.233 33.1927 24.233 35.0284C24.233 36.8641 25.7211 38.3523 27.5568 38.3523ZM29.3466 35.0284C29.3466 36.0169 28.5453 36.8182 27.5568 36.8182C26.5684 36.8182 25.767 36.0169 25.767 35.0284C25.767 34.0399 26.5684 33.2386 27.5568 33.2386C28.5453 33.2386 29.3466 34.0399 29.3466 35.0284Z" fill="currentColor"/>
<path fill-rule="evenodd" clip-rule="evenodd" d="M34.5412 18.9474L34.4602 18.9205H11.348C10.7469 18.9205 10.1592 19.0984 9.65909 19.4318L2.5 24.8011V26.0795H39.5739L46.2216 24.0341L40.2494 23.1153C39.8044 23.0468 39.3798 22.882 39.0051 22.6322C38.8731 22.5442 38.7481 22.4462 38.6311 22.3389L35.7386 19.6875C35.4023 19.3512 34.9924 19.0978 34.5412 18.9474ZM10.6818 25.0568V21.9886H8.63636L4.54545 25.0568H10.6818ZM12.983 23.6761C12.983 23.5914 13.0516 23.5227 13.1364 23.5227H18.4545C18.5393 23.5227 18.608 23.5914 18.608 23.6761V24.9034C18.608 24.9881 18.5393 25.0568 18.4545 25.0568H13.1364C13.0516 25.0568 12.983 24.9881 12.983 24.9034V23.6761ZM20.8068 23.5227C20.7221 23.5227 20.6534 23.5914 20.6534 23.6761V24.9034C20.6534 24.9881 20.7221 25.0568 20.8068 25.0568H26.125C26.2097 25.0568 26.2784 24.9881 26.2784 24.9034V23.6761C26.2784 23.5914 26.2097 23.5227 26.125 23.5227H20.8068ZM28.3239 23.6761C28.3239 23.5914 28.3925 23.5227 28.4773 23.5227H33.7955C33.8802 23.5227 33.9489 23.5914 33.9489 23.6761V24.9034C33.9489 24.9881 33.8802 25.0568 33.7955 25.0568H28.4773C28.3925 25.0568 28.3239 24.9881 28.3239 24.9034V23.6761Z" fill="currentColor"/>
</svg>
