<svg width="100%" height="100%" viewBox="0 0 16 16" fill="none" xmlns="http://www.w3.org/2000/svg">
<path d="M14 6.66699V7.33366H13.3333V8.00033H12.6667V8.66699H12V9.33366H11.3333V10.0003H10.6667V10.667H10V11.3337H9.33333V12.0003H8.66667V12.667H8V13.3337H7.33333V14.0003H6.66667V14.667H6V15.3337H5.33333V14.0003H6V12.0003H6.66667V9.33366H2V8.66699H2.66667V8.00033H3.33333V7.33366H4V6.66699H4.66667V6.00033H5.33333V5.33366H6V4.66699H6.66667V4.00033H7.33333V3.33366H8V2.66699H8.66667V2.00033H9.33333V1.33366H10V0.666992H10.6667V2.00033H10V4.00033H9.33333V6.66699H14Z" fill="currentColor"/>
</svg>
