<svg width="100%" height="100%" viewBox="0 0 48 48" fill="none" xmlns="http://www.w3.org/2000/svg">
<path d="M30 26H32V28H34V30H36V32H38V34H40V36H42V38H44V40H42V42H40V44H38V42H36V40H34V38H32V36H30V34H28V32H26V30H22V32H20V34H18V36H16V38H14V40H12V42H10V44H8V42H6V40H4V38H6V36H8V34H10V32H12V30H14V28H16V26H18V22H16V20H14V18H12V16H10V14H8V12H6V10H4V8H6V6H8V4H10V6H12V8H14V10H16V12H18V14H20V16H22V18H26V16H28V14H30V12H32V10H34V8H36V6H38V4H40V6H42V8H44V10H42V12H40V14H38V16H36V18H34V20H32V22H30V26Z" fill="currentColor"/>
</svg>
