<svg width="28" height="28" viewBox="0 0 28 28" fill="none" xmlns="http://www.w3.org/2000/svg">
<rect width="28" height="28" rx="14" fill="#F8F9FA" fill-opacity="0.8"/>
<path d="M11.75 8V7.25C11.75 7.05109 11.829 6.86032 11.9697 6.71967C12.1103 6.57902 12.3011 6.5 12.5 6.5H15.5C15.6989 6.5 15.8897 6.57902 16.0303 6.71967C16.171 6.86032 16.25 7.05109 16.25 7.25V8H19.25C19.6478 8 20.0294 8.15804 20.3107 8.43934C20.592 8.72064 20.75 9.10218 20.75 9.5V10.25C20.75 10.6478 20.592 11.0294 20.3107 11.3107C20.0294 11.592 19.6478 11.75 19.25 11.75H19.1502L18.6403 19.4C18.6022 19.9695 18.3492 20.5032 17.9324 20.8931C17.5156 21.283 16.9662 21.4999 16.3955 21.5H11.6195C11.0493 21.5 10.5003 21.2835 10.0836 20.8942C9.66688 20.5049 9.41353 19.9719 9.37475 19.403L8.85275 11.75H8.75C8.35218 11.75 7.97064 11.592 7.68934 11.3107C7.40804 11.0294 7.25 10.6478 7.25 10.25V9.5C7.25 9.10218 7.40804 8.72064 7.68934 8.43934C7.97064 8.15804 8.35218 8 8.75 8H11.75ZM19.25 9.5H8.75V10.25H19.25V9.5ZM10.3557 11.75L10.871 19.301C10.8839 19.4907 10.9684 19.6684 11.1074 19.7981C11.2463 19.9279 11.4294 20.0001 11.6195 20H16.3955C16.5859 20 16.7691 19.9277 16.9081 19.7976C17.0471 19.6675 17.1314 19.4895 17.144 19.2995L17.6465 11.75H10.3565H10.3557ZM12.5 12.5C12.6989 12.5 12.8897 12.579 13.0303 12.7197C13.171 12.8603 13.25 13.0511 13.25 13.25V18.5C13.25 18.6989 13.171 18.8897 13.0303 19.0303C12.8897 19.171 12.6989 19.25 12.5 19.25C12.3011 19.25 12.1103 19.171 11.9697 19.0303C11.829 18.8897 11.75 18.6989 11.75 18.5V13.25C11.75 13.0511 11.829 12.8603 11.9697 12.7197C12.1103 12.579 12.3011 12.5 12.5 12.5ZM15.5 12.5C15.6989 12.5 15.8897 12.579 16.0303 12.7197C16.171 12.8603 16.25 13.0511 16.25 13.25V18.5C16.25 18.6989 16.171 18.8897 16.0303 19.0303C15.8897 19.171 15.6989 19.25 15.5 19.25C15.3011 19.25 15.1103 19.171 14.9697 19.0303C14.829 18.8897 14.75 18.6989 14.75 18.5V13.25C14.75 13.0511 14.829 12.8603 14.9697 12.7197C15.1103 12.579 15.3011 12.5 15.5 12.5Z" fill="#21272A"/>
</svg>
