<svg width="100%" height="100%" viewBox="0 0 24 24" fill="none" xmlns="http://www.w3.org/2000/svg">
<path fill-rule="evenodd" clip-rule="evenodd" d="M5 1C3.93913 1 2.92172 1.42143 2.17157 2.17157C1.42143 2.92172 1 3.93913 1 5V19C1 20.0609 1.42143 21.0783 2.17157 21.8284C2.92172 22.5786 3.93913 23 5 23H19C20.0609 23 21.0783 22.5786 21.8284 21.8284C22.5786 21.0783 23 20.0609 23 19V5C23 3.93913 22.5786 2.92172 21.8284 2.17157C21.0783 1.42143 20.0609 1 19 1H5ZM9.955 6.205C8.71 6.205 7.768 6.415 6.736 6.921C6.67713 6.94975 6.62782 6.99489 6.594 7.051C5.886 8.234 4.5 11.52 4.5 15.41C4.5 15.499 4.534 15.584 4.596 15.647C5.244 16.317 5.834 16.809 6.466 17.157C7.103 17.506 7.766 17.7 8.55 17.794C8.61533 17.802 8.68156 17.7908 8.74067 17.7619C8.79978 17.7329 8.84922 17.6875 8.883 17.631L9.228 17.057C8.93766 16.9552 8.65826 16.8246 8.394 16.667C8.24869 16.5809 8.10785 16.4874 7.972 16.387L7.945 16.367L7.937 16.361L7.935 16.359H7.933C7.83281 16.2729 7.76977 16.1514 7.75707 16.0199C7.74437 15.8884 7.78299 15.7571 7.86485 15.6534C7.94672 15.5497 8.06549 15.4817 8.19634 15.4635C8.3272 15.4454 8.46 15.4785 8.567 15.556L8.569 15.557L8.585 15.569L8.653 15.619C8.713 15.661 8.803 15.721 8.914 15.787C9.18097 15.9486 9.46951 16.0715 9.771 16.152C10.4998 16.336 11.2484 16.4301 12 16.432C12.752 16.4302 13.5009 16.3361 14.23 16.152C14.5311 16.0714 14.8193 15.9485 15.086 15.787C15.1995 15.7198 15.3097 15.6471 15.416 15.569L15.431 15.557L15.433 15.556C15.54 15.4809 15.6717 15.4496 15.8011 15.4685C15.9304 15.4874 16.0477 15.555 16.1287 15.6576C16.2098 15.7602 16.2486 15.8898 16.2371 16.0201C16.2256 16.1503 16.1648 16.2712 16.067 16.358L16.065 16.359L16.063 16.361L16.055 16.368L16.028 16.388C15.8922 16.4884 15.7513 16.5819 15.606 16.668C15.3417 16.8252 15.0623 16.9555 14.772 17.057L15.117 17.631C15.186 17.746 15.317 17.811 15.45 17.794C16.234 17.7 16.897 17.506 17.533 17.156C18.166 16.809 18.756 16.316 19.403 15.647C19.465 15.5837 19.4998 15.4986 19.5 15.41C19.5 11.521 18.114 8.234 17.406 7.053C17.3722 6.99689 17.3229 6.95175 17.264 6.923C16.232 6.416 15.29 6.206 14.046 6.206C13.9743 6.20573 13.9044 6.22812 13.8462 6.26996C13.788 6.31181 13.7446 6.37097 13.722 6.439L13.492 7.126C13.0101 6.96933 12.5068 6.88837 12 6.886C11.4932 6.88837 10.9899 6.96933 10.508 7.126L10.279 6.438C10.2565 6.37013 10.2132 6.31109 10.1552 6.26926C10.0972 6.22743 10.0275 6.20494 9.956 6.205H9.955ZM9.614 13.705C10.178 13.705 10.636 13.17 10.636 12.511C10.636 11.852 10.178 11.318 9.614 11.318C9.05 11.318 8.591 11.852 8.591 12.511C8.591 13.171 9.049 13.705 9.614 13.705ZM14.386 13.705C14.951 13.705 15.409 13.17 15.409 12.511C15.409 11.852 14.951 11.318 14.386 11.318C13.822 11.318 13.364 11.852 13.364 12.511C13.364 13.171 13.822 13.705 14.386 13.705Z" fill="currentColor"/>
</svg>
