<svg width="28" height="28" viewBox="0 0 28 28" fill="none" xmlns="http://www.w3.org/2000/svg">
<rect width="28" height="28" rx="14" fill="#F8F9FA" fill-opacity="0.8"/>
<g clip-path="url(#clip0_690_4535)">
<path d="M10.25 10.25H9.5C9.10218 10.25 8.72064 10.408 8.43934 10.6893C8.15804 10.9706 8 11.3522 8 11.75V18.5C8 18.8978 8.15804 19.2794 8.43934 19.5607C8.72064 19.842 9.10218 20 9.5 20H16.25C16.6478 20 17.0294 19.842 17.3107 19.5607C17.592 19.2794 17.75 18.8978 17.75 18.5V17.75" stroke="#21272A" stroke-width="1.5" stroke-linecap="round" stroke-linejoin="round"/>
<path d="M20.2888 9.93883C20.5841 9.64345 20.7501 9.24282 20.7501 8.82508C20.7501 8.40734 20.5841 8.00672 20.2888 7.71133C19.9934 7.41595 19.5927 7.25 19.175 7.25C18.7573 7.25 18.3566 7.41595 18.0613 7.71133L11.75 14.0001V16.2501H14L20.2888 9.93883V9.93883Z" stroke="#21272A" stroke-width="1.5" stroke-linecap="round" stroke-linejoin="round"/>
<path d="M17 8.75L19.25 11" stroke="#21272A" stroke-width="1.5" stroke-linecap="round" stroke-linejoin="round"/>
</g>
<defs>
<clipPath id="clip0_690_4535">
<rect width="18" height="18" fill="white" transform="translate(5 5)"/>
</clipPath>
</defs>
</svg>
