<svg width="100%" height="100%" viewBox="0 0 32 32" fill="none" xmlns="http://www.w3.org/2000/svg">
<path d="M-5.33398 0H37.3327V32H-5.33398V0Z" fill="#012169"/>
<path d="M-0.333984 0L15.9327 12.0667L32.1327 0H37.3327V4.13333L21.3327 16.0667L37.3327 27.9333V32H31.9994L15.9994 20.0667L0.0660159 32H-5.33398V28L10.5993 16.1333L-5.33398 4.26667V0H-0.333984Z" fill="white"/>
<path d="M22.9327 18.7333L37.3327 29.3333V32L19.266 18.7333H22.9327ZM10.666 20.0667L11.066 22.4L-1.73398 32H-5.33398L10.666 20.0667ZM37.3327 0V0.2L20.7327 12.7333L20.866 9.8L33.9994 0H37.3327ZM-5.33398 0L10.5993 11.7333H6.59935L-5.33398 2.8V0Z" fill="#C8102E"/>
<path d="M10.7327 0V32H21.3994V0H10.7327ZM-5.33398 10.6667V21.3333H37.3327V10.6667H-5.33398Z" fill="white"/>
<path d="M-5.33398 12.8667V19.2667H37.3327V12.8667H-5.33398ZM12.866 0V32H19.266V0H12.866Z" fill="#C8102E"/>
</svg>
