<svg width="100%" height="100%" viewBox="0 0 20 20" fill="none" xmlns="http://www.w3.org/2000/svg">
<rect width="100%" height="100%" rx="2" fill="#1A1A1A"/>
<path d="M17.2963 0.833008H3.03704C1.91667 0.833008 1 1.74967 1 2.87004V17.1293C1 18.2507 1.91667 19.1663 3.03704 19.1663H10.1667V12.0367H8.12963V9.51588H10.1667V7.42792C10.1667 5.22384 11.4011 3.67569 14.0024 3.67569L15.8388 3.67773V6.33097H14.6196C13.6072 6.33097 13.2222 7.09079 13.2222 7.7956V9.5169H15.8378L15.2593 12.0367H13.2222V19.1663H17.2963C18.4167 19.1663 19.3333 18.2507 19.3333 17.1293V2.87004C19.3333 1.74967 18.4167 0.833008 17.2963 0.833008Z" fill="currentColor"/>
</svg>
