<svg width="100%" height="100%" viewBox="0 0 16 16" fill="none" xmlns="http://www.w3.org/2000/svg">
<path d="M13.3333 4.00033V8.00033H12.6667V8.66699H12V9.33366H10.6667V10.0003H6.66667V8.00033H8.66667V8.66699H11.3333V8.00033H12V7.33366H12.6667V4.66699H12V3.33366H11.3333V2.66699H10.6667V2.00033H10V1.33366H6V2.00033H5.33333V2.66699H4.66667V3.33366H4V4.66699H3.33333V7.33366H2.66667V6.66699H2V4.66699H2.66667V4.00033H3.33333V2.66699H4V2.00033H4.66667V1.33366H5.33333V0.666992H10.6667V1.33366H11.3333V2.00033H12V2.66699H12.6667V4.00033H13.3333Z" fill="currentColor"/>
<path d="M12 5.33366V6.66699H11.3333V7.33366H10.6667V8.00033H9.33333V7.33366H6V9.33366H5.33333V8.66699H4.66667V8.00033H4V5.33366H4.66667V4.00033H5.33333V3.33366H6V2.66699H10V3.33366H10.6667V4.00033H11.3333V5.33366H12Z" fill="currentColor"/>
<path d="M14.6654 12.667V14.667H13.9987V15.3337H1.9987V14.667H1.33203V12.667H1.9987V12.0003H2.66536V11.3337H3.33203V10.667H5.9987V11.3337H9.9987V10.667H12.6654V11.3337H13.332V12.0003H13.9987V12.667H14.6654Z" fill="currentColor"/>
</svg>
