<svg width="100%" height="100%" viewBox="0 0 50 50" fill="none" xmlns="http://www.w3.org/2000/svg">
<path d="M4.075 16.4141H6.325L10.825 21.5783H14.65V11.6991H13.075V11.25H21.4L22.075 11.4745L21.4 11.9236H19.15L25.675 20.0066H27.025L32.425 21.5783L40.525 22.2518L44.8 23.3745L47.5 24.4971L44.8 25.6197L40.525 26.7424L32.425 27.416L27.025 28.9877H25.675L19.15 37.0706H21.4L22.075 37.5197L21.4 37.9688H13.075V37.0706H14.65V27.416H10.825L6.325 32.5801H4.075L3.625 31.9065V27.416H4.3V26.7424H7.45V26.5179L2.5 25.8443V23.1499L7.225 22.7009V22.2518H4.3V21.3537H3.625V17.0877L4.075 16.4141Z" fill="currentColor"/>
</svg>
