<svg width="100%" height="100%" viewBox="0 0 24 24" fill="none" xmlns="http://www.w3.org/2000/svg">
<path d="M12 9.272C11.4605 9.272 10.933 9.43199 10.4844 9.73175C10.0358 10.0315 9.68613 10.4576 9.47966 10.956C9.27318 11.4545 9.21916 12.003 9.32442 12.5322C9.42968 13.0614 9.6895 13.5475 10.071 13.929C10.4525 14.3105 10.9386 14.5703 11.4678 14.6756C11.997 14.7808 12.5455 14.7268 13.044 14.5203C13.5424 14.3139 13.9685 13.9642 14.2682 13.5156C14.568 13.067 14.728 12.5395 14.728 12C14.728 11.6418 14.6574 11.287 14.5203 10.956C14.3832 10.6251 14.1823 10.3243 13.929 10.071C13.6757 9.81769 13.3749 9.61675 13.044 9.47966C12.713 9.34256 12.3582 9.272 12 9.272ZM22.923 6.577C22.9179 5.72747 22.7615 4.88564 22.461 4.091C22.2402 3.50939 21.8986 2.9812 21.4587 2.5413C21.0188 2.1014 20.4906 1.75979 19.909 1.539C19.1144 1.23853 18.2725 1.08209 17.423 1.077C16.004 1 15.586 1 12 1C8.414 1 7.996 1 6.577 1.077C5.72747 1.08209 4.88564 1.23853 4.091 1.539C3.50939 1.75979 2.9812 2.1014 2.5413 2.5413C2.1014 2.9812 1.75979 3.50939 1.539 4.091C1.23853 4.88564 1.08209 5.72747 1.077 6.577C1 7.996 1 8.414 1 12C1 15.586 1 16.004 1.077 17.423C1.08968 18.2754 1.24587 19.1195 1.539 19.92C1.75757 20.4996 2.09907 21.025 2.54 21.46C2.97824 21.9023 3.50749 22.2438 4.091 22.461C4.88564 22.7615 5.72747 22.9179 6.577 22.923C7.996 23 8.414 23 12 23C15.586 23 16.004 23 17.423 22.923C18.2725 22.9179 19.1144 22.7615 19.909 22.461C20.4925 22.2438 21.0218 21.9023 21.46 21.46C21.9009 21.025 22.2424 20.4996 22.461 19.92C22.7605 19.1213 22.9169 18.276 22.923 17.423C23 16.004 23 15.586 23 12C23 8.414 23 7.996 22.923 6.577ZM20.129 15.377C20.0943 16.0559 19.9494 16.7246 19.7 17.357C19.4865 17.8847 19.169 18.364 18.7665 18.7665C18.364 19.169 17.8847 19.4865 17.357 19.7C16.7186 19.9355 16.0462 20.0656 15.366 20.085H8.634C7.95384 20.0656 7.28138 19.9355 6.643 19.7C6.09734 19.4976 5.60466 19.1742 5.202 18.754C4.80316 18.3596 4.49531 17.8828 4.3 17.357C4.06432 16.7191 3.93788 16.046 3.926 15.366V8.634C3.93788 7.95403 4.06432 7.28093 4.3 6.643C4.50237 6.09734 4.82581 5.60466 5.246 5.202C5.64258 4.80585 6.11874 4.4984 6.643 4.3C7.28138 4.06448 7.95384 3.93445 8.634 3.915H15.366C16.0462 3.93445 16.7186 4.06448 17.357 4.3C17.9027 4.50237 18.3953 4.82581 18.798 5.246C19.1968 5.6404 19.5047 6.11719 19.7 6.643C19.9355 7.28138 20.0656 7.95384 20.085 8.634V12C20.085 14.266 20.162 14.497 20.129 15.366V15.377ZM18.369 7.193C18.238 6.83768 18.0315 6.51501 17.7638 6.24724C17.496 5.97946 17.1733 5.77297 16.818 5.642C16.3301 5.47289 15.8163 5.39097 15.3 5.4H8.7C8.18109 5.40507 7.66718 5.5019 7.182 5.686C6.83212 5.81102 6.51286 6.00908 6.24544 6.26702C5.97802 6.52496 5.76857 6.83686 5.631 7.182C5.47184 7.67204 5.39381 8.1848 5.4 8.7V15.3C5.41151 15.8183 5.50813 16.3311 5.686 16.818C5.81697 17.1733 6.02346 17.496 6.29123 17.7638C6.55901 18.0315 6.88168 18.238 7.237 18.369C7.70648 18.5411 8.20028 18.6376 8.7 18.655H15.3C15.8189 18.6499 16.3328 18.5531 16.818 18.369C17.1733 18.238 17.496 18.0315 17.7638 17.7638C18.0315 17.496 18.238 17.1733 18.369 16.818C18.5531 16.3328 18.6499 15.8189 18.655 15.3V8.7C18.6548 8.18063 18.5578 7.66584 18.369 7.182V7.193ZM12 16.202C11.4487 16.202 10.9028 16.0932 10.3936 15.8819C9.88444 15.6706 9.42193 15.3609 9.03262 14.9706C8.6433 14.5803 8.33483 14.117 8.12486 13.6072C7.91489 13.0975 7.80755 12.5513 7.809 12C7.809 11.1685 8.05573 10.3556 8.51794 9.66436C8.98015 8.9731 9.63706 8.43453 10.4055 8.11682C11.174 7.7991 12.0194 7.71653 12.8348 7.87956C13.6502 8.04259 14.3989 8.44389 14.9862 9.03265C15.5734 9.62141 15.9727 10.3712 16.1336 11.187C16.2945 12.0028 16.2097 12.8481 15.89 13.6157C15.5702 14.3833 15.03 15.0388 14.3375 15.4992C13.645 15.9596 12.8315 16.2042 12 16.202ZM16.4 8.623C16.1568 8.59726 15.9318 8.48244 15.7683 8.30067C15.6047 8.11889 15.5142 7.88302 15.5142 7.6385C15.5142 7.39398 15.6047 7.15811 15.7683 6.97633C15.9318 6.79456 16.1568 6.67974 16.4 6.654C16.6432 6.67974 16.8682 6.79456 17.0317 6.97633C17.1953 7.15811 17.2858 7.39398 17.2858 7.6385C17.2858 7.88302 17.1953 8.11889 17.0317 8.30067C16.8682 8.48244 16.6432 8.59726 16.4 8.623Z" fill="currentColor"/>
</svg>
