<svg width="100%" height="100%" viewBox="0 0 24 24" fill="none" xmlns="http://www.w3.org/2000/svg">
<path d="M4.39453 19.4193H7.70312V9.47917H4.39453V19.4193ZM7.91797 6.41406C7.90842 5.91753 7.73655 5.50694 7.40234 5.18229C7.06814 4.85764 6.62413 4.69531 6.07031 4.69531C5.51649 4.69531 5.06532 4.85764 4.7168 5.18229C4.36827 5.50694 4.19401 5.91753 4.19401 6.41406C4.19401 6.90104 4.3635 7.30925 4.70247 7.63867C5.04145 7.9681 5.48307 8.13281 6.02734 8.13281H6.04167C6.60503 8.13281 7.05859 7.9681 7.40234 7.63867C7.74609 7.30925 7.91797 6.90104 7.91797 6.41406ZM16.2969 19.4193H19.6055V13.7188C19.6055 12.2483 19.2569 11.1359 18.5599 10.3815C17.8628 9.62717 16.9414 9.25 15.7956 9.25C14.497 9.25 13.4991 9.80859 12.8021 10.9258H12.8307V9.47917H9.52214C9.55078 10.1094 9.55078 13.4227 9.52214 19.4193H12.8307V13.862C12.8307 13.4991 12.8641 13.2318 12.931 13.0599C13.0742 12.7257 13.2891 12.4416 13.5755 12.2077C13.862 11.9737 14.2153 11.8568 14.6354 11.8568C15.7431 11.8568 16.2969 12.6063 16.2969 14.1055V19.4193ZM23 5.125V18.875C23 20.0113 22.5966 20.9829 21.7897 21.7897C20.9829 22.5966 20.0113 23 18.875 23H5.125C3.98872 23 3.01714 22.5966 2.21029 21.7897C1.40343 20.9829 1 20.0113 1 18.875V5.125C1 3.98872 1.40343 3.01714 2.21029 2.21029C3.01714 1.40343 3.98872 1 5.125 1H18.875C20.0113 1 20.9829 1.40343 21.7897 2.21029C22.5966 3.01714 23 3.98872 23 5.125Z" fill="currentColor"/>
</svg>
