<svg width="100%" height="100%" viewBox="0 0 24 24" fill="none" xmlns="http://www.w3.org/2000/svg">
<path fill-rule="evenodd" clip-rule="evenodd" d="M5 1C3.93913 1 2.92172 1.42143 2.17157 2.17157C1.42143 2.92172 1 3.93913 1 5V19C1 20.0609 1.42143 21.0783 2.17157 21.8284C2.92172 22.5786 3.93913 23 5 23H19C20.0609 23 21.0783 22.5786 21.8284 21.8284C22.5786 21.0783 23 20.0609 23 19V5C23 3.93913 22.5786 2.92172 21.8284 2.17157C21.0783 1.42143 20.0609 1 19 1H5ZM20 12C20 14.1217 19.1571 16.1566 17.6569 17.6569C16.1566 19.1571 14.1217 20 12 20C9.87827 20 7.84344 19.1571 6.34315 17.6569C4.84285 16.1566 4 14.1217 4 12C4 9.87827 4.84285 7.84344 6.34315 6.34315C7.84344 4.84285 9.87827 4 12 4C14.1217 4 16.1566 4.84285 17.6569 6.34315C19.1571 7.84344 20 9.87827 20 12ZM6.532 11.764C6.532 11.69 6.581 11.619 6.65 11.594L15.613 8.177C15.6441 8.16612 15.6776 8.16354 15.71 8.1695C15.7424 8.17546 15.7728 8.18976 15.798 8.211C15.848 8.254 15.87 8.325 15.855 8.39L14.067 15.908C14.0603 15.9373 14.0463 15.9645 14.0264 15.987C14.0065 16.0095 13.9813 16.0267 13.953 16.037C13.925 16.0476 13.8948 16.0511 13.8651 16.0471C13.8354 16.043 13.8072 16.0317 13.783 16.014L10.408 13.296L13.42 10.594C13.4393 10.5762 13.4516 10.5522 13.4547 10.5261C13.4578 10.5001 13.4516 10.4738 13.437 10.452C13.422 10.4303 13.3997 10.4148 13.3742 10.4082C13.3487 10.4016 13.3216 10.4044 13.298 10.416L8.823 12.727L6.65 11.934C6.61601 11.9201 6.58677 11.8966 6.56582 11.8665C6.54488 11.8363 6.53313 11.8007 6.532 11.764Z" fill="currentColor"/>
</svg>
