<svg width="100%" height="100%" viewBox="0 0 24 24" fill="none" xmlns="http://www.w3.org/2000/svg">
<path d="M10.3627 13.6555C10.3627 13.0918 10.6336 12.1953 12.7373 12.1953C13.3822 12.1953 13.7796 12.242 14.3131 12.3616C14.1426 14.5699 13.0618 14.8614 12.0113 14.8614C11.4366 14.8614 10.3627 14.5616 10.3627 13.6555Z" fill="currentColor"/>
<path d="M4.56125 23H19.4387C20.3833 23 21.2891 22.6248 21.9569 21.9569C22.6248 21.2891 23 20.3833 23 19.4387V4.56125C23 3.61675 22.6248 2.71093 21.9569 2.04307C21.2891 1.3752 20.3833 1 19.4387 1L4.56125 1C3.61675 1 2.71093 1.3752 2.04307 2.04307C1.3752 2.71093 1 3.61675 1 4.56125L1 19.4387C1 20.3833 1.3752 21.2891 2.04307 21.9569C2.71093 22.6248 3.61675 23 4.56125 23ZM9.06575 9.12625C9.84538 8.0125 10.8739 7.578 12.297 7.578C13.3007 7.578 14.1546 7.91625 14.7651 8.55562C15.3742 9.19637 15.7221 10.1121 15.8019 11.2823C16.1392 11.4234 16.45 11.5898 16.7341 11.7814C17.8781 12.55 18.5079 13.6995 18.5079 15.0168C18.5079 17.8176 16.2116 20.25 12.0564 20.25C8.48825 20.25 4.78125 18.1737 4.78125 11.9945C4.78125 5.84825 8.37138 3.75 12.0454 3.75C13.7421 3.75 17.7227 4.00025 19.2188 8.94338L17.8162 9.30637C16.6585 5.78638 14.2316 5.22538 12.0082 5.22538C8.33012 5.22538 6.25112 7.46388 6.25112 12.2283C6.25112 16.5004 8.57488 18.7691 12.0564 18.7691C14.9205 18.7691 17.0559 17.2814 17.0559 15.102C17.0559 13.6184 15.8101 12.9089 15.7455 12.9089C15.5021 14.1807 14.8504 16.3216 11.9876 16.3216C10.3197 16.3216 8.88013 15.1694 8.88013 13.6596C8.88013 11.5036 10.9261 10.7226 12.5417 10.7226C13.1468 10.7226 13.8755 10.7639 14.2564 10.8409C14.2564 10.1836 13.7009 9.05888 12.2956 9.05888C11.043 9.05888 10.7006 9.45487 10.3019 9.91687L10.2689 9.954C9.99113 9.76838 9.06575 9.12625 9.06575 9.12625Z" fill="currentColor"/>
</svg>
