<svg width="20" height="20" viewBox="0 0 20 20" fill="none" xmlns="http://www.w3.org/2000/svg">
<path d="M11.25 9.75H12V10.5H12.75V11.25H13.5V12H14.25V12.75H15V13.5H15.75V14.25H16.5V15H15.75V15.75H15V16.5H14.25V15.75H13.5V15H12.75V14.25H12V13.5H11.25V12.75H10.5V12H9.75V11.25H8.25V12H7.5V12.75H6.75V13.5H6V14.25H5.25V15H4.5V15.75H3.75V16.5H3V15.75H2.25V15H1.5V14.25H2.25V13.5H3V12.75H3.75V12H4.5V11.25H5.25V10.5H6V9.75H6.75V8.25H6V7.5H5.25V6.75H4.5V6H3.75V5.25H3V4.5H2.25V3.75H1.5V3H2.25V2.25H3V1.5H3.75V2.25H4.5V3H5.25V3.75H6V4.5H6.75V5.25H7.5V6H8.25V6.75H9.75V6H10.5V5.25H11.25V4.5H12V3.75H12.75V3H13.5V2.25H14.25V1.5H15V2.25H15.75V3H16.5V3.75H15.75V4.5H15V5.25H14.25V6H13.5V6.75H12.75V7.5H12V8.25H11.25V9.75Z" fill="white"/>
</svg>
