<svg width="100%" height="100%" viewBox="0 0 24 24" fill="none" xmlns="http://www.w3.org/2000/svg">
<path fill-rule="evenodd" clip-rule="evenodd" d="M17.5912 1.59258C13.9088 0.802473 10.09 0.802473 6.40758 1.59258L6.0108 1.67684C4.97469 1.89854 4.02301 2.3919 3.26172 3.102C2.50042 3.8121 1.95939 4.71107 1.69886 5.69883C0.767048 9.22954 0.767048 12.9275 1.69886 16.4582C1.94735 17.4002 2.45119 18.2623 3.1592 18.9569C3.8672 19.6515 4.75414 20.1538 5.72989 20.4128L6.27415 23.5315C6.29153 23.6306 6.33624 23.7233 6.40364 23.8001C6.47104 23.877 6.55867 23.935 6.65739 23.9683C6.75611 24.0016 6.86231 24.0088 6.96495 23.9893C7.06758 23.9698 7.16289 23.9242 7.24094 23.8573L10.4374 21.1127C12.837 21.2518 15.2449 21.0676 17.5912 20.5656L17.9892 20.4813C19.0253 20.2597 19.977 19.7663 20.7383 19.0562C21.4996 18.3461 22.0406 17.4471 22.3011 16.4594C23.233 12.9286 23.233 9.23066 22.3011 5.69996C22.0405 4.71205 21.4993 3.81298 20.7378 3.10287C19.9763 2.39275 19.0244 1.89947 17.988 1.67796L17.5912 1.59258ZM7.39544 5.60783C7.17791 5.57726 6.95603 5.6193 6.76691 5.72692H6.75052C6.31161 5.97408 5.91599 6.28528 5.5789 6.65153C5.298 6.96273 5.14584 7.2773 5.10604 7.58063C5.08263 7.76039 5.09902 7.94239 5.15403 8.11428L5.1751 8.12551C5.49112 9.01642 5.90312 9.87362 6.40641 10.6803C7.05566 11.8131 7.85423 12.8609 8.78243 13.7979L8.81052 13.8361L8.855 13.8675L8.88192 13.8979L8.91469 13.9248C9.89433 14.8183 10.9885 15.5885 12.1709 16.2167C13.5228 16.9233 14.3432 17.257 14.836 17.3963V17.4031C14.98 17.4458 15.1111 17.4649 15.2433 17.4649C15.6632 17.4359 16.0607 17.2721 16.3716 16.9997C16.752 16.6762 17.0739 16.2953 17.3244 15.8718V15.8639C17.5596 15.437 17.4801 15.0348 17.1406 14.7618C16.4594 14.1893 15.7221 13.6814 14.939 13.2451C14.4146 12.9721 13.8821 13.1373 13.6667 13.4136L13.2067 13.9709C12.9703 14.2473 12.5419 14.2091 12.5419 14.2091L12.5302 14.2158C9.33371 13.4327 8.48045 10.3264 8.48045 10.3264C8.48045 10.3264 8.44066 9.90395 8.73678 9.68825L9.31264 9.24336C9.58887 9.02765 9.78082 8.5176 9.4847 8.01429C9.03124 7.26317 8.50325 6.55585 7.9081 5.90218C7.77792 5.74869 7.59559 5.64409 7.3931 5.60671M12.7959 4.25743C12.6407 4.25743 12.4918 4.31661 12.3821 4.42196C12.2723 4.5273 12.2107 4.67018 12.2107 4.81916C12.2107 4.96814 12.2723 5.11102 12.3821 5.21637C12.4918 5.32171 12.6407 5.38089 12.7959 5.38089C14.2765 5.38089 15.5055 5.84488 16.4781 6.73467C16.9779 7.22113 17.3677 7.79746 17.6228 8.42885C17.8792 9.06136 17.9962 9.73656 17.9658 10.4129C17.9626 10.4866 17.9745 10.5603 18.0009 10.6296C18.0274 10.699 18.0678 10.7626 18.1198 10.817C18.225 10.9268 18.3712 10.9919 18.5264 10.9982C18.6817 11.0045 18.8331 10.9513 18.9475 10.8504C19.0618 10.7494 19.1297 10.609 19.1362 10.4601C19.1712 9.62821 19.0273 8.79835 18.7137 8.02215C18.3986 7.242 17.9188 6.53285 17.3045 5.93926L17.2928 5.92802C16.086 4.82141 14.5586 4.25743 12.7959 4.25743ZM12.7561 6.1044C12.6009 6.1044 12.452 6.16359 12.3423 6.26893C12.2325 6.37428 12.1709 6.51715 12.1709 6.66613C12.1709 6.81512 12.2325 6.95799 12.3423 7.06334C12.452 7.16868 12.6009 7.22787 12.7561 7.22787H12.776C13.8435 7.30089 14.6206 7.64242 15.1649 8.20303C15.7232 8.78049 16.0123 9.49838 15.9901 10.3859C15.9865 10.5349 16.0447 10.6791 16.152 10.7869C16.2592 10.8947 16.4066 10.9571 16.5618 10.9606C16.717 10.964 16.8673 10.9081 16.9796 10.8052C17.0919 10.7023 17.1569 10.5607 17.1605 10.4118C17.1886 9.24673 16.7977 8.24123 16.0228 7.43908V7.43683C15.2304 6.6212 14.1431 6.18979 12.8345 6.10553L12.8146 6.10328L12.7561 6.1044ZM12.7339 7.9862C12.6556 7.97957 12.5766 7.98815 12.5019 8.01144C12.4271 8.03472 12.3579 8.07224 12.2986 8.12174C12.2392 8.17123 12.1909 8.2317 12.1564 8.29953C12.122 8.36736 12.1021 8.44117 12.098 8.51653C12.0939 8.5919 12.1057 8.66728 12.1326 8.73818C12.1595 8.80908 12.2011 8.87405 12.2548 8.9292C12.3084 8.98435 12.3731 9.02855 12.445 9.05917C12.5168 9.0898 12.5944 9.1062 12.673 9.10742C13.1623 9.13213 13.4748 9.27369 13.6714 9.46355C13.8692 9.65454 14.0167 9.96125 14.0436 10.441C14.0451 10.5163 14.0623 10.5907 14.0943 10.6595C14.1264 10.7284 14.1725 10.7903 14.23 10.8417C14.2875 10.8931 14.3552 10.9328 14.429 10.9585C14.5029 10.9843 14.5813 10.9955 14.6598 10.9915C14.7382 10.9875 14.815 10.9683 14.8856 10.9353C14.9562 10.9022 15.0191 10.8558 15.0706 10.7988C15.1221 10.7419 15.1611 10.6756 15.1854 10.6039C15.2096 10.5322 15.2186 10.4565 15.2117 10.3814C15.1743 9.70735 14.9542 9.11191 14.5036 8.67376C14.0506 8.23561 13.4338 8.02215 12.7339 7.9862Z" fill="currentColor"/>
</svg>
