<svg width="100%" height="100%" viewBox="0 0 24 24" fill="none" xmlns="http://www.w3.org/2000/svg">
<path d="M5.52277 11.9312C5.52277 13.154 5.86652 14.3473 6.51473 15.3737L6.66696 15.6192L6.01384 18.0058L8.46429 17.3625L8.7 17.5049C9.69196 18.0942 10.8312 18.4085 11.9951 18.4085H12C15.5652 18.4085 18.546 15.5062 18.546 11.9362C18.546 10.2076 17.7996 8.58214 16.5768 7.35938C15.3491 6.1317 13.7286 5.45893 12 5.45893C8.42991 5.45893 5.52768 8.36116 5.52277 11.9312ZM14.4946 15.6339C13.8759 15.7272 13.3946 15.6781 12.1621 15.1478C10.3549 14.367 9.12723 12.6187 8.87679 12.2652C8.85714 12.2357 8.84241 12.221 8.8375 12.2112C8.73929 12.0835 8.04196 11.1554 8.04196 10.1978C8.04196 9.2942 8.48393 8.82768 8.69018 8.61161C8.70491 8.59687 8.71473 8.58705 8.72455 8.57232C8.90134 8.37589 9.1125 8.32679 9.24509 8.32679C9.37277 8.32679 9.50536 8.32679 9.6183 8.3317H9.65759C9.77054 8.3317 9.91295 8.3317 10.0554 8.66563C10.1143 8.80804 10.2027 9.02411 10.296 9.24509C10.458 9.63795 10.625 10.0455 10.6545 10.1094C10.7036 10.2076 10.7379 10.3205 10.6692 10.4482C10.5022 10.7821 10.3304 10.9589 10.2125 11.0866C10.0603 11.2437 9.99152 11.3174 10.0996 11.5089C10.8509 12.8004 11.6022 13.2473 12.7464 13.8219C12.9429 13.9201 13.0558 13.9054 13.1687 13.7728C13.2817 13.6451 13.6549 13.2031 13.7826 13.0116C13.9103 12.8152 14.0429 12.8496 14.2196 12.9134C14.3964 12.9772 15.354 13.4487 15.5504 13.5469C15.5897 13.5665 15.6241 13.5813 15.6536 13.596C15.7911 13.6647 15.8844 13.7089 15.9237 13.7728C15.9679 13.8661 15.9679 14.2589 15.8058 14.7107C15.6437 15.1674 14.8679 15.5799 14.4946 15.6339ZM23 4.14286C23 2.40937 21.5906 1 19.8571 1H4.14286C2.40937 1 1 2.40937 1 4.14286V19.8571C1 21.5906 2.40937 23 4.14286 23H19.8571C21.5906 23 23 21.5906 23 19.8571V4.14286ZM8.27277 18.7719L4.14286 19.8571L5.24777 15.8205C4.56518 14.642 4.2067 13.3013 4.2067 11.9263C4.21161 7.63437 7.70312 4.14286 11.9951 4.14286C14.0772 4.14286 16.0317 4.95312 17.5049 6.42634C18.9732 7.89955 19.8571 9.85402 19.8571 11.9362C19.8571 16.2281 16.2871 19.7196 11.9951 19.7196C10.6888 19.7196 9.40714 19.3906 8.27277 18.7719Z" fill="currentColor"/>
</svg>
