<svg width="100%" height="100%" viewBox="0 0 20 20" fill="none" xmlns="http://www.w3.org/2000/svg">
<path d="M19.8715 5.81202C19.8715 4.05425 18.5784 2.64023 16.9805 2.64023C14.8162 2.53906 12.6089 2.5 10.3531 2.5H9.64989C7.39961 2.5 5.18839 2.53906 3.02406 2.64062C1.43011 2.64062 0.136974 4.06246 0.136974 5.82022C0.039305 7.21042 -0.00210647 8.60101 0.000237572 9.99159C-0.00366917 11.3822 0.0406073 12.7741 0.133067 14.1673C0.133067 15.925 1.4262 17.3508 3.02015 17.3508C5.29387 17.4562 7.6262 17.5031 9.99759 17.4992C12.3729 17.507 14.6987 17.4575 16.975 17.3508C18.5729 17.3508 19.866 15.925 19.866 14.1673C19.9598 12.7728 20.0028 11.3822 19.9989 9.98769C20.0077 8.5971 19.9653 7.20521 19.8715 5.81202ZM8.0872 13.8235V6.14795L13.752 9.98378L8.0872 13.8235Z" fill="currentColor"/>
</svg>
