<svg width="100%" height="100%" viewBox="0 0 50 50" fill="none" xmlns="http://www.w3.org/2000/svg">
<path d="M7.98223 13.75C4.95448 13.75 2.5 16.2045 2.5 19.2322V20.1459C2.5 23.1737 4.95448 25.6282 7.98223 25.6282H27.6269C30.6547 25.6282 33.1091 23.1737 33.1091 20.1459V19.2322C33.1091 16.2045 30.6547 13.75 27.6269 13.75H7.98223Z" fill="currentColor"/>
<path fill-rule="evenodd" clip-rule="evenodd" d="M6.61168 26.3135H31.967V30.882H33.566V18.3185H38.4944C39.462 18.3185 40.4188 18.5216 41.303 18.9145C41.778 19.1257 42.2277 19.3897 42.6436 19.7016L42.7589 19.7881C43.475 20.3252 44.0699 21.0072 44.5046 21.7897C44.8245 22.3655 45.0531 22.9874 45.1822 23.6333L45.4442 24.9429C45.8851 25.2369 46.2007 25.6846 46.3292 26.1988L46.3579 26.3135V31.3388H47.5V32.7094H44.0736C44.0736 32.0794 43.9495 31.4557 43.7085 30.8737C43.4674 30.2917 43.114 29.7629 42.6686 29.3174C42.2232 28.872 41.6944 28.5187 41.1124 28.2776C40.5304 28.0365 39.9066 27.9124 39.2766 27.9124C38.6467 27.9124 38.0229 28.0365 37.4409 28.2776C36.8589 28.5187 36.3301 28.872 35.8847 29.3174C35.4393 29.7629 35.0859 30.2917 34.8448 30.8737C34.6623 31.3145 34.5468 31.7793 34.5015 32.2525H18.0112C17.9659 31.7793 17.8504 31.3145 17.6679 30.8737C17.4268 30.2917 17.0734 29.7629 16.628 29.3174C16.1826 28.872 15.6537 28.5187 15.0718 28.2776C14.4898 28.0365 13.866 27.9124 13.236 27.9124C12.6061 27.9124 11.9823 28.0365 11.4003 28.2776C10.8183 28.5187 10.2895 28.872 9.84408 29.3174C9.39864 29.7629 9.0453 30.2917 8.80423 30.8737C8.62164 31.3145 8.50617 31.7793 8.46089 32.2525H5.9264V30.882H6.61168V26.3135ZM36.5355 20.3744H39.1484C39.3853 20.3744 39.6213 20.4034 39.8511 20.4609C40.2258 20.5545 40.5779 20.7222 40.8869 20.9539L40.9794 21.0233C41.2136 21.1989 41.4217 21.407 41.5973 21.6412C41.8741 22.0102 42.0647 22.4366 42.1552 22.8889L42.2462 23.3439H36.5355V20.3744Z" fill="currentColor"/>
<path d="M15.5203 32.7094C15.5203 33.9709 14.4976 34.9936 13.2361 34.9936C11.9745 34.9936 10.9518 33.9709 10.9518 32.7094C10.9518 31.4478 11.9745 30.4251 13.2361 30.4251C14.4976 30.4251 15.5203 31.4478 15.5203 32.7094Z" fill="currentColor"/>
<path fill-rule="evenodd" clip-rule="evenodd" d="M13.236 37.0495C15.633 37.0495 17.5761 35.1064 17.5761 32.7094C17.5761 30.3124 15.633 28.3693 13.236 28.3693C10.8391 28.3693 8.89594 30.3124 8.89594 32.7094C8.89594 35.1064 10.8391 37.0495 13.236 37.0495ZM16.2056 32.7094C16.2056 34.3494 14.8761 35.6789 13.2361 35.6789C11.596 35.6789 10.2665 34.3494 10.2665 32.7094C10.2665 31.0694 11.596 29.7398 13.2361 29.7398C14.8761 29.7398 16.2056 31.0694 16.2056 32.7094Z" fill="currentColor"/>
<path d="M39.2767 34.9936C40.5382 34.9936 41.5609 33.9709 41.5609 32.7094C41.5609 31.4478 40.5382 30.4251 39.2767 30.4251C38.0151 30.4251 36.9924 31.4478 36.9924 32.7094C36.9924 33.9709 38.0151 34.9936 39.2767 34.9936Z" fill="currentColor"/>
<path fill-rule="evenodd" clip-rule="evenodd" d="M43.6168 32.7094C43.6168 35.1064 41.6736 37.0495 39.2766 37.0495C36.8797 37.0495 34.9365 35.1064 34.9365 32.7094C34.9365 30.3124 36.8797 28.3693 39.2766 28.3693C41.6736 28.3693 43.6168 30.3124 43.6168 32.7094ZM39.2767 35.6789C40.9167 35.6789 42.2462 34.3494 42.2462 32.7094C42.2462 31.0694 40.9167 29.7398 39.2767 29.7398C37.6366 29.7398 36.3071 31.0694 36.3071 32.7094C36.3071 34.3494 37.6366 35.6789 39.2767 35.6789Z" fill="currentColor"/>
</svg>
