<svg width="100%" height="100%" viewBox="0 0 18 18" fill="none" xmlns="http://www.w3.org/2000/svg">
<path d="M6.75 3V2.25C6.75 2.05109 6.82902 1.86032 6.96967 1.71967C7.11032 1.57902 7.30109 1.5 7.5 1.5H10.5C10.6989 1.5 10.8897 1.57902 11.0303 1.71967C11.171 1.86032 11.25 2.05109 11.25 2.25V3H14.25C14.6478 3 15.0294 3.15804 15.3107 3.43934C15.592 3.72064 15.75 4.10218 15.75 4.5V5.25C15.75 5.64782 15.592 6.02936 15.3107 6.31066C15.0294 6.59196 14.6478 6.75 14.25 6.75H14.1502L13.6403 14.4C13.6022 14.9695 13.3492 15.5032 12.9324 15.8931C12.5156 16.283 11.9662 16.4999 11.3955 16.5H6.6195C6.04926 16.5 5.50029 16.2835 5.08358 15.8942C4.66688 15.5049 4.41353 14.9719 4.37475 14.403L3.85275 6.75H3.75C3.35218 6.75 2.97064 6.59196 2.68934 6.31066C2.40804 6.02936 2.25 5.64782 2.25 5.25V4.5C2.25 4.10218 2.40804 3.72064 2.68934 3.43934C2.97064 3.15804 3.35218 3 3.75 3H6.75ZM14.25 4.5H3.75V5.25H14.25V4.5ZM5.35575 6.75L5.871 14.301C5.88393 14.4907 5.96841 14.6684 6.10737 14.7981C6.24632 14.9279 6.42938 15.0001 6.6195 15H11.3955C11.5859 15 11.7691 14.9277 11.9081 14.7976C12.0471 14.6675 12.1314 14.4895 12.144 14.2995L12.6465 6.75H5.3565H5.35575ZM7.5 7.5C7.69891 7.5 7.88968 7.57902 8.03033 7.71967C8.17098 7.86032 8.25 8.05109 8.25 8.25V13.5C8.25 13.6989 8.17098 13.8897 8.03033 14.0303C7.88968 14.171 7.69891 14.25 7.5 14.25C7.30109 14.25 7.11032 14.171 6.96967 14.0303C6.82902 13.8897 6.75 13.6989 6.75 13.5V8.25C6.75 8.05109 6.82902 7.86032 6.96967 7.71967C7.11032 7.57902 7.30109 7.5 7.5 7.5ZM10.5 7.5C10.6989 7.5 10.8897 7.57902 11.0303 7.71967C11.171 7.86032 11.25 8.05109 11.25 8.25V13.5C11.25 13.6989 11.171 13.8897 11.0303 14.0303C10.8897 14.171 10.6989 14.25 10.5 14.25C10.3011 14.25 10.1103 14.171 9.96967 14.0303C9.82902 13.8897 9.75 13.6989 9.75 13.5V8.25C9.75 8.05109 9.82902 7.86032 9.96967 7.71967C10.1103 7.57902 10.3011 7.5 10.5 7.5V7.5Z" fill="#21272A"/>
</svg>
